<?xml version="1.0"?>
<svg version="1.1" xmlns="http://www.w3.org/2000/svg" width="400" height="150" style=""><path fill="#db4242" d="M15.98291015625,80.10791015625q0-0.95068359375,0.104736328125-2.30419921875t0.38671875-2.81982421875t0.75732421875-2.91650390625t1.216552734375-2.56201171875t1.7724609375-1.75634765625q0.85400390625-0.53173828125,1.9658203125-0.53173828125q0.2255859375,0,0.46728515625,0.0322265625q2.8037109375,0.2578125,4.310302734375,1.281005859375t2.199462890625,2.59423828125t0.8056640625,3.5771484375t0.11279296875,4.229736328125q0,1.78857421875-0.330322265625,3.891357421875t-1.168212890625,3.923583984375t-2.312255859375,3.037353515625t-3.746337890625,1.216552734375q-1.3857421875,0-2.425048828125-0.507568359375t-1.764404296875-1.353515625t-1.1923828125-1.9658203125t-0.708984375-2.3203125t-0.346435546875-2.425048828125t-0.104736328125-2.3203125z M19.25390625,79.3828125q0,0.69287109375,0.01611328125,1.699951171875t0.136962890625,2.118896484375t0.314208984375,2.215576171875t0.572021484375,2.006103515625t0.958740234375,1.482421875t1.40185546875,0.6123046875l0.08056640625,0q0.7412109375,0,1.3212890625-0.56396484375q0.6123046875-0.59619140625,1.087646484375-1.43408203125t0.82177734375-1.764404296875t0.620361328125-1.587158203125l-0.064453125,0.14501953125q0.46728515625-1.482421875,0.62841796875-3.037353515625t0.1611328125-3.069580078125q0-0.72509765625-0.0966796875-1.748291015625t-0.314208984375-2.135009765625t-0.56396484375-2.199462890625t-0.878173828125-1.893310546875t-1.24072265625-1.224609375q-0.515625-0.30615234375-1.14404296875-0.322265625q-0.24169921875,0-0.4833984375,0.04833984375q-0.82177734375,0.1611328125-1.40185546875,0.8056640625t-0.942626953125,1.587158203125t-0.555908203125,2.0625t-0.298095703125,2.255859375t-0.120849609375,2.17529296875t-0.01611328125,1.764404296875z M26.52099609375,84.345703125l0-0.0322265625l0,0.0322265625z M32.751518554688,84.07177734375q0-0.322265625,0.072509765625-0.85400390625t0.169189453125-1.055419921875t0.2255859375-0.974853515625t0.30615234375-0.580078125q0.12890625-0.12890625,0.443115234375-0.2578125t0.66064453125-0.185302734375t0.64453125,0.04833984375t0.362548828125,0.427001953125q-0.2255859375,0.2900390625-0.410888671875,0.990966796875t-0.281982421875,1.554931640625q-0.08056640625,0.72509765625-0.08056640625,1.49853515625l0,0.27392578125q0.01611328125,0.90234375,0.1611328125,1.65966796875t0.443115234375,1.248779296875t0.829833984375,0.491455078125q1.1279296875,0,2.0625-1.039306640625t1.65966796875-2.537841796875t1.27294921875-3.182373046875t0.9345703125-2.940673828125q0.0966796875-0.37060546875,0.459228515625-0.49951171875t0.781494140625-0.088623046875t0.749267578125,0.201416015625t0.394775390625,0.38671875q-0.322265625,2.70703125-0.507568359375,5.4140625t-0.185302734375,5.4462890625q0,0.53173828125,0.04833984375,0.974853515625t-0.04833984375,0.75732421875t-0.427001953125,0.49951171875t-1.055419921875,0.185302734375q-0.1611328125,0-0.410888671875-0.0322265625t-0.515625-0.104736328125t-0.451171875-0.217529296875t-0.185302734375-0.33837890625q0-1.1923828125,0.088623046875-2.44921875t0.249755859375-2.43310546875q-0.43505859375,0.62841796875-0.958740234375,1.248779296875t-1.152099609375,1.119873046875t-1.353515625,0.797607421875t-1.56298828125,0.298095703125q-1.1923828125,0-1.877197265625-0.56396484375t-1.03125-1.409912109375t-0.43505859375-1.844970703125t-0.088623046875-1.93359375z M47.908798828125,80.97802734375q0-0.66064453125,0.233642578125-1.11181640625t0.990966796875-0.451171875q0.2900390625,0,0.72509765625,0.088623046875t0.49951171875,0.443115234375q0.1611328125,0.95068359375,0.17724609375,2.0625t0.11279296875,2.0947265625q0.37060546875-0.72509765625,0.95068359375-1.56298828125t1.3212890625-1.546875t1.611328125-1.17626953125t1.7724609375-0.46728515625q0.064453125,0,0.24169921875,0.04833984375t0.330322265625,0.136962890625t0.185302734375,0.201416015625t-0.17724609375,0.20947265625q-0.064453125,0.193359375-0.27392578125,0.233642578125t-0.37060546875,0.040283203125q-0.0966796875,0-0.30615234375-0.08056640625q-1.1923828125,0.62841796875-2.0302734375,1.7080078125t-1.36962890625,2.392822265625t-0.7734375,2.771484375t-0.24169921875,2.843994140625q0,0.69287109375-0.314208984375,0.837890625t-1.007080078125,0.14501953125q-0.37060546875,0-0.781494140625-0.08056640625t-0.572021484375-0.515625q-0.2900390625-0.91845703125-0.475341796875-2.11083984375t-0.281982421875-2.457275390625t-0.136962890625-2.489501953125t-0.040283203125-2.20751953125z M59.360024414063,86.35986328125q0-3.49658203125,0.314208984375-7.001220703125t1.313232421875-6.904541015625q0.2900390625-1.01513671875,0.75732421875-2.006103515625t1.14404296875-1.764404296875t1.611328125-1.2568359375t2.2236328125-0.4833984375l0.33837890625,0.0322265625q1.3857421875,0.193359375,2.04638671875,1.119873046875t0.66064453125,2.312255859375q0,0.37060546875-0.088623046875,0.926513671875t-0.281982421875,1.071533203125t-0.523681640625,0.878173828125t-0.829833984375,0.362548828125q-0.2255859375-0.0322265625-0.410888671875-0.08056640625t-0.346435546875-0.20947265625q0.2578125-0.56396484375,0.459228515625-1.17626953125t0.201416015625-1.40185546875q0-0.2900390625-0.04833984375-0.7412109375t-0.185302734375-0.894287109375t-0.362548828125-0.7734375t-0.62841796875-0.330322265625q-1.01513671875,0-1.7080078125,1.135986328125t-1.16015625,2.900390625t-0.69287109375,3.8994140625t-0.346435546875,4.125t-0.136962890625,3.59326171875t-0.01611328125,2.263916015625q0,0.7734375-0.01611328125,1.7080078125l0,0.20947265625q0.01611328125,0.82177734375,0.11279296875,1.56298828125q0.12890625,0.837890625,0.49951171875,1.4501953125t1.16015625,0.708984375q0.24169921875,0.0322265625,0.46728515625,0.0322265625q0.9345703125,0,1.69189453125-0.53173828125q0.9345703125-0.66064453125,1.65966796875-1.716064453125t1.2890625-2.3203125t1.039306640625-2.392822265625t0.926513671875-1.869140625t0.9345703125-0.7412109375q0.1611328125,0,0.4833984375,0.064453125t0.322265625,0.30615234375q0,0.064453125-0.0322265625,0.17724609375t-0.08056640625,0.17724609375q-0.43505859375,1.7080078125-1.103759765625,3.544921875t-1.7080078125,3.343505859375t-2.5458984375,2.457275390625t-3.617431640625,0.95068359375q-1.5146484375,0-2.457275390625-0.572021484375t-1.4501953125-1.53076171875t-0.69287109375-2.167236328125t-0.185302734375-2.44921875z M76.20919921875,85.7958984375q0-0.91845703125,0.233642578125-1.893310546875t0.7412109375-1.75634765625t1.281005859375-1.27294921875t1.869140625-0.491455078125q0.82177734375,0,1.732177734375,0.281982421875t1.667724609375,0.8056640625t1.232666015625,1.281005859375t0.475341796875,1.69189453125q0,1.1279296875-0.410888671875,2.14306640625t-1.152099609375,1.812744140625t-1.732177734375,1.2568359375t-2.151123046875,0.459228515625q-0.95068359375,0-1.65966796875-0.346435546875t-1.184326171875-0.926513671875t-0.708984375-1.36962890625t-0.233642578125-1.67578125z M78.5778515625,85.763671875q0,0.2900390625,0.088623046875,0.85400390625t0.265869140625,1.103759765625t0.459228515625,0.9345703125t0.684814453125,0.362548828125q0.85400390625-0.0966796875,1.409912109375-0.555908203125t0.90234375-1.119873046875t0.4833984375-1.43408203125t0.136962890625-1.46630859375q0-0.88623046875-0.346435546875-1.482421875t-1.135986328125-0.966796875q0,0.0322265625,0.0322265625,0.0322265625t0.0322265625-0.0322265625l-0.40283203125-0.0966796875q-0.1611328125-0.064453125-0.394775390625-0.14501953125t-0.459228515625-0.3544921875q-0.62841796875,0.2255859375-0.974853515625,0.580078125t-0.523681640625,0.862060546875t-0.217529296875,1.216552734375t-0.040283203125,1.7080078125z M88.458032226562,81.453369140625q-0.040283203125-0.539794921875,0.064453125-0.990966796875t0.4189453125-0.733154296875t1.007080078125-0.281982421875q0.1611328125,0,0.394775390625,0.040283203125t0.459228515625,0.104736328125t0.378662109375,0.193359375t0.153076171875,0.3544921875l0,1.82080078125q0.62841796875-0.72509765625,1.36962890625-1.039306640625t1.69189453125-0.314208984375q0.72509765625,0,1.43408203125,0.330322265625t1.33740234375,0.878173828125t1.087646484375,1.20849609375t0.668701171875,1.3212890625q0.12890625-0.59619140625,0.2900390625-1.458251953125t0.475341796875-1.651611328125t0.829833984375-1.353515625t1.36962890625-0.56396484375q0.91845703125,0,1.546875,0.66064453125t1.023193359375,1.716064453125t0.59619140625,2.360595703125t0.298095703125,2.578125t0.0966796875,2.376708984375l0,1.732177734375q0,0.193359375-0.14501953125,0.314208984375t-0.362548828125,0.185302734375t-0.451171875,0.08056640625t-0.362548828125,0.01611328125q-0.49951171875,0-0.910400390625-0.153076171875t-0.410888671875-0.781494140625l0-1.4501953125t-0.0322265625-1.877197265625t-0.11279296875-2.01416015625t-0.20947265625-1.828857421875t-0.330322265625-1.3212890625t-0.491455078125-0.515625q-0.40283203125,0-0.580078125,0.451171875t-0.298095703125,1.14404296875t-0.185302734375,1.46630859375t-0.17724609375,1.46630859375t-0.362548828125,1.135986328125t-0.684814453125,0.443115234375q-0.46728515625,0-0.82177734375-0.443115234375t-0.700927734375-1.103759765625t-0.69287109375-1.41796875t-0.765380859375-1.41796875q-0.4189453125-0.6767578125-0.90234375-1.095703125q-0.43505859375-0.40283203125-0.98291015625-0.38671875l-0.08056640625,0q-0.72509765625,0.0322265625-1.135986328125,0.523681640625t-0.62841796875,1.200439453125t-0.265869140625,1.522705078125t-0.04833984375,1.426025390625q0,0.580078125,0.0966796875,1.353515625q0.064453125,0.515625,0.064453125,0.98291015625q0,0.24169921875-0.01611328125,0.46728515625q-0.04833984375,0.6767578125-0.362548828125,1.135986328125t-1.168212890625,0.459228515625q-0.322265625,0-0.8056640625-0.064453125t-0.64453125-0.43505859375q-0.37060546875-0.66064453125-0.56396484375-1.667724609375t-0.2900390625-2.07861328125t-0.11279296875-2.126953125t-0.01611328125-1.812744140625q0-0.53173828125-0.040283203125-1.071533203125z M108.77961914063,79.65673828125q0-0.75732421875,0.298095703125-1.119873046875t1.087646484375-0.362548828125q0.46728515625,0,0.878173828125,0.193359375t0.410888671875,0.82177734375q0.064453125,0.91845703125,0.064453125,1.925537109375t0.17724609375,1.909423828125q0.40283203125-0.66064453125,0.910400390625-1.3212890625t1.119873046875-1.17626953125t1.33740234375-0.829833984375t1.5791015625-0.314208984375q1.16015625,0,1.9658203125,0.4833984375t1.329345703125,1.2568359375t0.75732421875,1.748291015625t0.233642578125,1.957763671875q0,1.5146484375-0.459228515625,2.473388671875t-1.216552734375,1.506591796875t-1.716064453125,0.7412109375t-1.925537109375,0.193359375q-0.85400390625,0-1.59521484375-0.330322265625t-1.03125-1.248779296875q0-0.2578125,0.378662109375-0.322265625t0.539794921875-0.064453125q0.53173828125,0,0.78955078125,0.2900390625q0.193359375,0.2255859375,0.427001953125,0.459228515625t0.491455078125,0.233642578125q0.49951171875,0,1.04736328125-0.281982421875t1.007080078125-0.7412109375t0.7734375-1.087646484375t0.314208984375-1.2890625q0-0.56396484375-0.0966796875-1.40185546875t-0.330322265625-1.611328125t-0.64453125-1.33740234375t-1.039306640625-0.56396484375q-0.95068359375,0-1.716064453125,0.8701171875t-1.27294921875,2.0947265625t-0.78955078125,2.5458984375t-0.281982421875,2.20751953125t0.11279296875,2.23974609375t0.233642578125,2.811767578125t0.233642578125,2.811767578125t0.11279296875,2.23974609375q0,0.2255859375-0.185302734375,0.362548828125t-0.443115234375,0.217529296875t-0.523681640625,0.0966796875t-0.394775390625,0.01611328125q-0.43505859375,0-0.910400390625-0.0966796875t-0.652587890625-0.59619140625q-0.2255859375-0.78955078125-0.4189453125-2.247802734375t-0.346435546875-3.22265625t-0.265869140625-3.7060546875t-0.193359375-3.746337890625t-0.120849609375-3.30322265625t-0.040283203125-2.384765625z M124.22693847656,85.48974609375q0-1.095703125,0.298095703125-2.11083984375t0.894287109375-1.812744140625t1.490478515625-1.27294921875t2.070556640625-0.475341796875q0.72509765625,0,1.603271484375,0.217529296875t1.651611328125,0.64453125t1.2890625,1.087646484375t0.515625,1.5146484375q0,0.40283203125-0.136962890625,0.6123046875t-0.555908203125,0.20947265625l-0.17724609375-0.0322265625q0.46728515625,1.2568359375,0.8056640625,2.578125t0.66064453125,2.642578125q0.12890625,0.2578125,0.193359375,0.459228515625t0.064453125,0.394775390625q0,0.2578125-0.14501953125,0.427001953125t-0.378662109375,0.249755859375t-0.4833984375,0.11279296875t-0.443115234375,0.0322265625q-0.69287109375,0-1.039306640625-0.24169921875t-0.49951171875-0.66064453125t-0.185302734375-0.942626953125t-0.12890625-1.055419921875q-0.193359375,0.62841796875-0.507568359375,1.224609375t-0.7412109375,1.071533203125t-1.007080078125,0.75732421875t-1.30517578125,0.281982421875q-1.0634765625,0-1.78857421875-0.6123046875t-1.168212890625-1.506591796875t-0.64453125-1.909423828125t-0.201416015625-1.88525390625z M126.51502441406,85.26416015625q0,0.59619140625,0.08056640625,1.2568359375t0.265869140625,1.30517578125t0.475341796875,1.216552734375t0.72509765625,1.007080078125q0.78955078125-0.85400390625,1.168212890625-2.07861328125t0.6767578125-2.360595703125t0.6767578125-1.94970703125t1.168212890625-0.813720703125q0.49951171875,0,0.837890625,0.17724609375q-0.1611328125-0.40283203125-0.53173828125-0.781494140625t-0.829833984375-0.69287109375t-0.95068359375-0.515625t-0.926513671875-0.201416015625q-0.12890625,0-0.298095703125,0.040283203125t-0.265869140625,0.008056640625q-0.66064453125,0.193359375-1.087646484375,0.668701171875t-0.69287109375,1.119873046875t-0.378662109375,1.3212890625t-0.11279296875,1.27294921875z M138.20794921875,85.5703125l0-0.46728515625q0-0.580078125,0.0322265625-1.095703125q0.0322265625-0.72509765625,0.0322265625-1.1923828125q0-0.2578125,0.0322265625-0.588134765625t0.1611328125-0.523681640625q0.1611328125-0.1611328125,0.378662109375-0.330322265625t0.475341796875-0.169189453125q0.82177734375,0,1.2890625,0.185302734375t0.49951171875,0.765380859375l0.064453125,0.49951171875q0.2900390625-0.69287109375,0.7734375-1.716064453125t1.119873046875-1.94970703125t1.43408203125-1.5791015625t1.683837890625-0.652587890625q0.82177734375,0,1.353515625,0.7734375t0.845947265625,1.973876953125t0.443115234375,2.6748046875t0.17724609375,2.892333984375t0.064453125,2.586181640625t0.11279296875,1.764404296875q0.064453125,0.49951171875,0.217529296875,1.055419921875t0.153076171875,1.023193359375q0,0.12890625-0.185302734375,0.249755859375t-0.394775390625,0.201416015625t-0.427001953125,0.12890625t-0.314208984375,0.04833984375q-0.62841796875,0-0.894287109375-0.942626953125t-0.330322265625-2.360595703125t-0.064453125-3.069580078125t-0.11279296875-3.069580078125t-0.459228515625-2.360595703125t-1.103759765625-0.974853515625q-0.69287109375,0-1.43408203125,0.894287109375t-1.27294921875,2.376708984375q-0.515625,1.482421875-0.708984375,3.36767578125q-0.064453125,0.59619140625-0.064453125,1.1923828125q0,1.30517578125,0.27392578125,2.6103515625q0.0322265625,0.2255859375-0.185302734375,0.33837890625t-0.539794921875,0.17724609375t-0.652587890625,0.08056640625t-0.507568359375,0.01611328125q-0.62841796875,0-1.007080078125-0.443115234375t-0.588134765625-1.135986328125t-0.281982421875-1.554931640625t-0.088623046875-1.699951171875z M152.84960449219,81.896484375q0-0.46728515625,0.265869140625-0.6123046875t0.668701171875-0.14501953125q0.66064453125,0,1.007080078125,0.249755859375t0.346435546875,0.878173828125q0,0.75732421875,0.11279296875,1.893310546875t0.330322265625,2.20751953125t0.515625,1.844970703125t0.620361328125,0.7734375q0.59619140625,0,1.055419921875-0.91845703125t0.8056640625-2.255859375t0.59619140625-2.876220703125t0.346435546875-2.747314453125q0.064453125-0.66064453125,0.314208984375-0.958740234375t0.910400390625-0.298095703125q0.75732421875,0,1.103759765625,0.62841796875t0.443115234375,1.546875q0.08056640625,0.78955078125,0.08056640625,1.6435546875l0,0.27392578125l0,0.64453125q0,0.6123046875,0.01611328125,1.095703125l0.46728515625,9.87744140625l0.064453125,1.6435546875q0.0322265625,0.2255859375,0.04833984375,0.427001953125t0.01611328125,0.427001953125q0,0.91845703125-0.394775390625,1.184326171875t-1.281005859375,0.265869140625q-0.193359375,0-0.491455078125-0.0322265625t-0.580078125-0.12890625t-0.4833984375-0.265869140625t-0.201416015625-0.427001953125l0.064453125-0.1611328125q0.08056640625-0.966796875,0.08056640625-2.0302734375l0-0.33837890625q-0.01611328125-1.2568359375-0.08056640625-2.5458984375t-0.14501953125-2.578125t-0.08056640625-2.4814453125q-0.2255859375,0.49951171875-0.523681640625,1.03125t-0.69287109375,0.958740234375t-0.894287109375,0.708984375t-1.1279296875,0.281982421875q-0.91845703125,0-1.5146484375-0.4833984375t-0.926513671875-1.2568359375t-0.475341796875-1.732177734375t-0.193359375-1.91748046875t-0.064453125-1.828857421875t-0.12890625-1.46630859375z"/><path fill="#" d=""/></svg>
